<?xml version="1.0" encoding="UTF-8"?>
<svg xmlns="http://www.w3.org/2000/svg" width="59.4mm" height="59.4mm" viewBox="0 0 168.38 168.38">
  <g isolation="isolate">
    <g id="Livello_2" data-name="Livello 2">
      <g id="Livello_1-2" data-name="Livello 1">
        <g>
          <path d="M42.09,42.17c0,23.29-18.85,42.17-42.09,42.17v-42.17s42.09,0,42.09,0Z" fill="#dedc00"/>
          <path d="M84.19,84.35c-23.25,0-42.09-18.88-42.09-42.17h42.09s0,42.17,0,42.17Z" fill="#733b8f"/>
          <path d="M0,42.17C0,18.88,18.85,0,42.09,0v42.17s-42.09,0-42.09,0Z" fill="#733b8f"/>
          <path d="M42.09,0c23.25,0,42.09,18.88,42.09,42.17h-42.09s0-42.17,0-42.17Z" fill="#009fe3" mix-blend-mode="multiply" opacity=".49"/>
          <path d="M126.28,42.17c0,23.29-18.85,42.17-42.09,42.17v-42.17s42.09,0,42.09,0Z" fill="#dedc00"/>
          <path d="M168.38,84.35c-23.25,0-42.09-18.88-42.09-42.17h42.09s0,42.17,0,42.17Z" fill="#733b8f"/>
          <path d="M84.19,42.17C84.19,18.88,103.04,0,126.28,0v42.17s-42.09,0-42.09,0Z" fill="#733b8f"/>
          <path d="M126.28,0c23.25,0,42.09,18.88,42.09,42.17h-42.09s0-42.17,0-42.17Z" fill="#009fe3" mix-blend-mode="multiply" opacity=".49"/>
          <path d="M126.28,126.2c0-23.29,18.85-42.17,42.09-42.17v42.17s-42.09,0-42.09,0Z" fill="#dedc00"/>
          <path d="M84.19,84.03c23.25,0,42.09,18.88,42.09,42.17h-42.09s0-42.17,0-42.17Z" fill="#733b8f"/>
          <path d="M168.38,126.2c0,23.29-18.85,42.17-42.09,42.17v-42.17s42.09,0,42.09,0Z" fill="#733b8f"/>
          <path d="M126.28,168.38c-23.25,0-42.09-18.88-42.09-42.17h42.09s0,42.17,0,42.17Z" fill="#009fe3" mix-blend-mode="multiply" opacity=".49"/>
          <path d="M42.09,126.2c0-23.29,18.85-42.17,42.09-42.17v42.17s-42.09,0-42.09,0Z" fill="#009fe3" mix-blend-mode="multiply" opacity=".49"/>
          <path d="M0,84.03c23.25,0,42.09,18.88,42.09,42.17H0s0-42.17,0-42.17Z" fill="#733b8f"/>
          <path d="M84.19,126.2c0,23.29-18.85,42.17-42.09,42.17v-42.17s42.09,0,42.09,0Z" fill="#733b8f"/>
          <path d="M42.09,168.38C18.85,168.38,0,149.5,0,126.2h42.09s0,42.17,0,42.17Z" fill="#dedc00"/>
        </g>
      </g>
    </g>
  </g>
</svg>