<?xml version="1.0" encoding="UTF-8"?>
<svg id="Livello_2" data-name="Livello 2" xmlns="http://www.w3.org/2000/svg" width="59.4mm" height="59.4mm" viewBox="0 0 168.38 168.38">
  <g id="Livello_1-2" data-name="Livello 1">
    <g id="logo">
      <rect width="168.38" height="168.38" fill="#fff"/>
      <g>
        <path d="M28.94,76.65l.33-.69c.46.42,1.25.72,2.04.72,1.07,0,1.53-.42,1.53-.96,0-1.51-3.75-.56-3.75-2.86,0-.96.74-1.77,2.37-1.77.73,0,1.48.19,1.99.55l-.29.71c-.54-.35-1.15-.5-1.7-.5-1.05,0-1.5.44-1.5.98,0,1.51,3.75.57,3.75,2.84,0,.95-.76,1.76-2.4,1.76-.95,0-1.88-.32-2.37-.78Z" fill="#334c9b"/>
        <path d="M34.44,75.01c0-1.4,1.04-2.39,2.44-2.39s2.43.99,2.43,2.39-1.03,2.4-2.43,2.4-2.44-1-2.44-2.4ZM38.46,75.01c0-1-.67-1.65-1.58-1.65s-1.58.65-1.58,1.65.68,1.66,1.58,1.66,1.58-.66,1.58-1.66Z" fill="#334c9b"/>
        <path d="M45.36,75.01c0,1.44-1,2.4-2.37,2.4-.66,0-1.25-.26-1.64-.76v2.42h-.85v-6.41h.81v.74c.38-.52.98-.79,1.67-.79,1.37,0,2.37.96,2.37,2.39ZM44.5,75.01c0-.99-.68-1.65-1.58-1.65s-1.58.65-1.58,1.65.68,1.66,1.58,1.66,1.58-.66,1.58-1.66Z" fill="#334c9b"/>
        <path d="M49.05,72.62v.82c-.07,0-.13,0-.19,0-.91,0-1.48.56-1.48,1.58v2.34h-.85v-4.69h.81v.79c.3-.55.88-.83,1.71-.83Z" fill="#334c9b"/>
        <path d="M49.95,71.21c0-.31.25-.56.58-.56s.58.24.58.54c0,.32-.24.57-.58.57s-.58-.24-.58-.55ZM50.1,72.66h.85v4.69h-.85v-4.69Z" fill="#334c9b"/>
        <path d="M57.02,74.65v2.7h-.85v-2.6c0-.92-.46-1.37-1.27-1.37-.9,0-1.49.54-1.49,1.56v2.42h-.85v-4.69h.81v.71c.34-.48.95-.75,1.69-.75,1.14,0,1.95.65,1.95,2.04Z" fill="#334c9b"/>
        <path d="M61.23,77.08c-.26.22-.65.33-1.03.33-.95,0-1.49-.52-1.49-1.47v-2.58h-.8v-.7h.8v-1.03h.85v1.03h1.35v.7h-1.35v2.54c0,.5.27.79.74.79.25,0,.49-.08.66-.22l.27.61Z" fill="#334c9b"/>
        <path d="M66.32,75.29h-3.8c.11.82.77,1.37,1.7,1.37.55,0,1.01-.19,1.35-.57l.47.55c-.42.5-1.07.76-1.85.76-1.51,0-2.52-1-2.52-2.4s1-2.39,2.35-2.39,2.32.97,2.32,2.42c0,.07,0,.18-.02.26ZM62.51,74.68h3.01c-.09-.79-.68-1.34-1.5-1.34s-1.42.55-1.5,1.34Z" fill="#334c9b"/>
        <path d="M71.96,74.65v2.7h-.85v-2.6c0-.92-.46-1.37-1.27-1.37-.9,0-1.49.54-1.49,1.56v2.42h-.85v-4.69h.81v.71c.35-.48.95-.75,1.69-.75,1.14,0,1.95.65,1.95,2.04Z" fill="#334c9b"/>
        <path d="M77.99,70.79v6.57h-.81v-.74c-.38.53-.98.8-1.67.8-1.37,0-2.37-.96-2.37-2.4s1-2.39,2.37-2.39c.66,0,1.25.25,1.64.75v-2.58h.85ZM77.15,75.01c0-1-.68-1.65-1.57-1.65s-1.58.65-1.58,1.65.68,1.66,1.58,1.66,1.57-.66,1.57-1.66Z" fill="#334c9b"/>
        <path d="M83.82,75.29h-3.8c.11.82.77,1.37,1.7,1.37.55,0,1.01-.19,1.35-.57l.47.55c-.42.5-1.07.76-1.85.76-1.51,0-2.52-1-2.52-2.4s1-2.39,2.35-2.39,2.32.97,2.32,2.42c0,.07,0,.18-.02.26ZM80.02,74.68h3.01c-.09-.79-.68-1.34-1.5-1.34s-1.42.55-1.5,1.34Z" fill="#334c9b"/>
        <path d="M89.47,74.65v2.7h-.85v-2.6c0-.92-.46-1.37-1.27-1.37-.9,0-1.49.54-1.49,1.56v2.42h-.85v-4.69h.81v.71c.35-.48.95-.75,1.69-.75,1.14,0,1.95.65,1.95,2.04Z" fill="#334c9b"/>
        <path d="M94.52,76.65v.7h-3.93v-.55l2.77-3.44h-2.72v-.7h3.8v.56l-2.77,3.43h2.84Z" fill="#334c9b"/>
        <path d="M99.37,74.52v2.83h-.81v-.62c-.28.42-.81.67-1.54.67-1.06,0-1.73-.57-1.73-1.38,0-.75.49-1.37,1.88-1.37h1.35v-.17c0-.72-.42-1.13-1.26-1.13-.56,0-1.12.19-1.49.5l-.35-.64c.49-.39,1.19-.6,1.94-.6,1.28,0,2.01.62,2.01,1.9ZM98.52,75.92v-.66h-1.31c-.84,0-1.08.33-1.08.73,0,.47.39.76,1.04.76s1.14-.29,1.35-.83Z" fill="#334c9b"/>
        <path d="M102.88,76.65l.33-.69c.46.42,1.25.72,2.04.72,1.07,0,1.53-.42,1.53-.96,0-1.51-3.75-.56-3.75-2.86,0-.96.74-1.77,2.37-1.77.72,0,1.48.19,1.99.55l-.29.71c-.54-.35-1.15-.5-1.7-.5-1.05,0-1.5.44-1.5.98,0,1.51,3.75.57,3.75,2.84,0,.95-.76,1.76-2.4,1.76-.95,0-1.88-.32-2.37-.78Z" fill="#334c9b"/>
        <path d="M113.68,75.01c0,1.44-1,2.4-2.37,2.4-.66,0-1.25-.26-1.64-.76v2.42h-.85v-6.41h.81v.74c.38-.52.98-.79,1.67-.79,1.37,0,2.37.96,2.37,2.39ZM112.82,75.01c0-.99-.68-1.65-1.58-1.65s-1.58.65-1.58,1.65.68,1.66,1.58,1.66,1.58-.66,1.58-1.66Z" fill="#334c9b"/>
        <path d="M119.07,75.29h-3.8c.11.82.77,1.37,1.7,1.37.55,0,1.01-.19,1.35-.57l.47.55c-.42.5-1.07.76-1.85.76-1.51,0-2.52-1-2.52-2.4s1-2.39,2.35-2.39,2.32.97,2.32,2.42c0,.07,0,.18-.02.26ZM115.27,74.68h3.01c-.09-.79-.68-1.34-1.5-1.34s-1.42.55-1.5,1.34Z" fill="#334c9b"/>
        <path d="M119.83,75.01c0-1.4,1.04-2.39,2.48-2.39.84,0,1.54.34,1.91,1l-.65.42c-.3-.46-.76-.67-1.27-.67-.92,0-1.61.65-1.61,1.65s.69,1.66,1.61,1.66c.51,0,.97-.21,1.27-.67l.65.41c-.37.66-1.07,1.01-1.91,1.01-1.44,0-2.48-1-2.48-2.4Z" fill="#334c9b"/>
        <path d="M125.17,71.21c0-.31.25-.56.58-.56s.58.24.58.54c0,.32-.24.57-.58.57s-.58-.24-.58-.55ZM125.32,72.66h.85v4.69h-.85v-4.69Z" fill="#334c9b"/>
        <path d="M131.5,74.52v2.83h-.8v-.62c-.28.42-.81.67-1.54.67-1.06,0-1.74-.57-1.74-1.38,0-.75.49-1.37,1.89-1.37h1.34v-.17c0-.72-.42-1.13-1.26-1.13-.56,0-1.12.19-1.49.5l-.35-.64c.49-.39,1.19-.6,1.94-.6,1.28,0,2.01.62,2.01,1.9ZM130.65,75.92v-.66h-1.31c-.84,0-1.08.33-1.08.73,0,.47.39.76,1.04.76s1.14-.29,1.35-.83Z" fill="#334c9b"/>
        <path d="M133.08,70.79h.85v6.57h-.85v-6.57Z" fill="#334c9b"/>
        <path d="M139.77,75.29h-3.81c.11.82.77,1.37,1.7,1.37.55,0,1.01-.19,1.35-.57l.47.55c-.43.5-1.07.76-1.85.76-1.51,0-2.52-1-2.52-2.4s1-2.39,2.35-2.39,2.32.97,2.32,2.42c0,.07,0,.18-.02.26ZM135.96,74.68h3.01c-.09-.79-.68-1.34-1.5-1.34s-1.42.55-1.5,1.34Z" fill="#334c9b"/>
        <path d="M33.81,80.39v6.57h-.81v-.74c-.38.53-.98.8-1.67.8-1.37,0-2.37-.96-2.37-2.4s1-2.39,2.37-2.39c.66,0,1.25.25,1.64.75v-2.58h.85ZM32.97,84.61c0-1-.68-1.65-1.57-1.65s-1.58.65-1.58,1.65.68,1.66,1.58,1.66,1.57-.65,1.57-1.66Z" fill="#334c9b"/>
        <path d="M35.27,80.82c0-.31.25-.56.57-.56s.58.24.58.54c0,.32-.24.57-.58.57s-.57-.24-.57-.55ZM35.42,82.27h.85v4.69h-.85v-4.69Z" fill="#334c9b"/>
        <path d="M44.53,86.96l-1.34-1.9c-.12,0-.26.02-.39.02h-1.53v1.88h-.88v-6.2h2.42c1.61,0,2.58.81,2.58,2.16,0,.96-.5,1.65-1.36,1.96l1.47,2.08h-.96ZM44.51,82.92c0-.88-.59-1.39-1.73-1.39h-1.5v2.79h1.5c1.13,0,1.73-.51,1.73-1.4Z" fill="#334c9b"/>
        <path d="M46.27,84.61c0-1.4,1.04-2.39,2.44-2.39s2.43.99,2.43,2.39-1.03,2.4-2.43,2.4-2.44-1-2.44-2.4ZM50.28,84.61c0-1-.67-1.65-1.58-1.65s-1.58.65-1.58,1.65.68,1.66,1.58,1.66,1.58-.65,1.58-1.66Z" fill="#334c9b"/>
        <path d="M60.11,84.26v2.7h-.85v-2.6c0-.92-.44-1.37-1.21-1.37-.85,0-1.41.54-1.41,1.56v2.42h-.85v-2.6c0-.92-.44-1.37-1.21-1.37-.85,0-1.41.54-1.41,1.56v2.42h-.85v-4.69h.81v.7c.34-.48.91-.74,1.62-.74s1.32.28,1.63.87c.35-.53,1.01-.87,1.8-.87,1.14,0,1.92.65,1.92,2.04Z" fill="#334c9b"/>
        <path d="M65.39,84.13v2.83h-.81v-.62c-.28.42-.8.67-1.54.67-1.06,0-1.74-.57-1.74-1.38,0-.75.49-1.37,1.89-1.37h1.34v-.17c0-.72-.42-1.13-1.26-1.13-.56,0-1.12.19-1.49.5l-.35-.64c.49-.39,1.19-.6,1.94-.6,1.28,0,2.01.62,2.01,1.9ZM64.54,85.53v-.66h-1.31c-.84,0-1.08.33-1.08.73,0,.47.39.76,1.04.76s1.14-.29,1.35-.83Z" fill="#334c9b"/>
        <path d="M31.79,95.48h-2.27l-.49,1.09h-.45l1.86-4.07h.42l1.86,4.07h-.45l-.49-1.09ZM31.64,95.13l-.98-2.19-.98,2.19h1.95Z" fill="#334c9b"/>
        <path d="M34.86,93.49v.4s-.07,0-.1,0c-.64,0-1.03.41-1.03,1.13v1.56h-.41v-3.06h.39v.6c.19-.41.58-.62,1.15-.62Z" fill="#334c9b"/>
        <path d="M35.27,95.04c0-.91.66-1.55,1.58-1.55.52,0,.95.2,1.2.6l-.31.21c-.21-.31-.53-.45-.89-.45-.67,0-1.16.48-1.16,1.19s.49,1.19,1.16,1.19c.36,0,.68-.14.89-.45l.31.21c-.24.39-.68.6-1.2.6-.91,0-1.58-.65-1.58-1.56Z" fill="#334c9b"/>
        <path d="M41.62,94.79v1.77h-.41v-1.73c0-.65-.34-.98-.92-.98-.66,0-1.07.41-1.07,1.1v1.6h-.41v-4.31h.41v1.79c.23-.35.63-.56,1.14-.56.74,0,1.26.43,1.26,1.31Z" fill="#334c9b"/>
        <path d="M45.42,95.17h-2.56c.05.64.53,1.06,1.2,1.06.37,0,.7-.13.94-.4l.23.27c-.27.33-.7.5-1.18.5-.95,0-1.61-.65-1.61-1.56s.63-1.55,1.49-1.55,1.48.63,1.48,1.55c0,.04,0,.08,0,.13ZM42.86,94.86h2.17c-.05-.6-.49-1.02-1.09-1.02s-1.03.42-1.08,1.02Z" fill="#334c9b"/>
        <path d="M45.96,95.04c0-.91.66-1.55,1.56-1.55s1.55.65,1.55,1.55-.66,1.56-1.55,1.56-1.56-.65-1.56-1.56ZM48.65,95.04c0-.71-.48-1.19-1.13-1.19s-1.14.48-1.14,1.19.49,1.19,1.14,1.19,1.13-.48,1.13-1.19Z" fill="#334c9b"/>
        <path d="M49.91,92.25h.41v4.31h-.41v-4.31Z" fill="#334c9b"/>
        <path d="M51.17,95.04c0-.91.66-1.55,1.56-1.55s1.55.65,1.55,1.55-.66,1.56-1.55,1.56-1.56-.65-1.56-1.56ZM53.86,95.04c0-.71-.48-1.19-1.13-1.19s-1.14.48-1.14,1.19.49,1.19,1.14,1.19,1.13-.48,1.13-1.19Z" fill="#334c9b"/>
        <path d="M57.95,93.51v2.69c0,1.05-.52,1.53-1.53,1.53-.56,0-1.1-.17-1.42-.47l.21-.31c.29.26.73.42,1.2.42.77,0,1.13-.36,1.13-1.11v-.39c-.26.39-.69.59-1.19.59-.87,0-1.53-.61-1.53-1.49s.66-1.48,1.53-1.48c.51,0,.95.21,1.21.61v-.59h.4ZM57.55,94.96c0-.66-.49-1.12-1.16-1.12s-1.16.45-1.16,1.12.48,1.12,1.16,1.12,1.16-.46,1.16-1.12Z" fill="#334c9b"/>
        <path d="M59.02,92.54c0-.16.13-.29.3-.29s.3.13.3.28c0,.17-.13.3-.3.3s-.3-.13-.3-.3ZM59.11,93.51h.41v3.06h-.41v-3.06Z" fill="#334c9b"/>
        <path d="M62.98,94.67v1.9h-.4v-.48c-.19.31-.55.51-1.05.51-.69,0-1.12-.36-1.12-.89,0-.47.3-.87,1.18-.87h.97v-.19c0-.52-.3-.81-.87-.81-.4,0-.77.14-1.02.36l-.19-.31c.31-.26.76-.41,1.24-.41.79,0,1.24.4,1.24,1.19ZM62.57,95.65v-.5h-.96c-.59,0-.79.23-.79.55,0,.35.29.58.77.58s.81-.22.97-.62Z" fill="#334c9b"/>
        <path d="M69.12,95.48c0,.69-.51,1.09-1.53,1.09h-1.87v-4.07h1.76c.91,0,1.43.38,1.43,1.05,0,.47-.25.77-.62.92.52.12.84.46.84,1.01ZM66.15,92.85v1.48h1.3c.65,0,1.03-.25,1.03-.74s-.38-.74-1.03-.74h-1.3ZM68.69,95.44c0-.53-.39-.76-1.1-.76h-1.44v1.53h1.44c.71,0,1.1-.23,1.1-.77Z" fill="#334c9b"/>
        <path d="M72.68,95.17h-2.56c.05.64.54,1.06,1.2,1.06.37,0,.7-.13.94-.4l.23.27c-.27.33-.7.5-1.18.5-.95,0-1.6-.65-1.6-1.56s.63-1.55,1.49-1.55,1.48.63,1.48,1.55c0,.04,0,.08,0,.13ZM70.12,94.86h2.17c-.05-.6-.49-1.02-1.09-1.02s-1.03.42-1.08,1.02Z" fill="#334c9b"/>
        <path d="M73.53,92.25h.41v4.31h-.41v-4.31Z" fill="#334c9b"/>
        <path d="M75.09,92.25h.41v4.31h-.41v-4.31Z" fill="#334c9b"/>
        <path d="M79.32,95.17h-2.56c.05.64.53,1.06,1.2,1.06.37,0,.7-.13.94-.4l.23.27c-.27.33-.7.5-1.18.5-.95,0-1.6-.65-1.6-1.56s.63-1.55,1.49-1.55,1.48.63,1.48,1.55c0,.04,0,.08,0,.13ZM76.76,94.86h2.17c-.05-.6-.49-1.02-1.09-1.02s-1.03.42-1.08,1.02Z" fill="#334c9b"/>
        <path d="M84.33,95.48h-2.27l-.49,1.09h-.45l1.86-4.07h.42l1.86,4.07h-.45l-.49-1.09ZM84.17,95.13l-.98-2.19-.98,2.19h1.95Z" fill="#334c9b"/>
        <path d="M87.4,93.49v.4s-.07,0-.1,0c-.64,0-1.03.41-1.03,1.13v1.56h-.41v-3.06h.39v.6c.19-.41.58-.62,1.15-.62Z" fill="#334c9b"/>
        <path d="M89.89,96.38c-.16.15-.41.22-.65.22-.58,0-.9-.33-.9-.89v-1.85h-.55v-.35h.55v-.67h.41v.67h.93v.35h-.93v1.83c0,.36.19.56.53.56.17,0,.34-.05.45-.16l.15.3Z" fill="#334c9b"/>
        <path d="M90.55,92.54c0-.16.13-.29.3-.29s.3.13.3.28c0,.17-.13.3-.3.3s-.3-.13-.3-.3ZM90.64,93.51h.41v3.06h-.41v-3.06Z" fill="#334c9b"/>
        <path d="M97,93.89c0,.87-.63,1.39-1.66,1.39h-1.09v1.29h-.43v-4.07h1.52c1.03,0,1.66.52,1.66,1.4ZM96.57,93.89c0-.65-.43-1.02-1.24-1.02h-1.08v2.03h1.08c.81,0,1.24-.37,1.24-1.01Z" fill="#334c9b"/>
        <path d="M100.12,94.67v1.9h-.4v-.48c-.19.31-.55.51-1.05.51-.69,0-1.12-.36-1.12-.89,0-.47.3-.87,1.18-.87h.97v-.19c0-.52-.3-.81-.87-.81-.4,0-.77.14-1.02.36l-.19-.31c.31-.26.76-.41,1.24-.41.79,0,1.24.4,1.24,1.19ZM99.71,95.65v-.5h-.96c-.59,0-.79.23-.79.55,0,.35.29.58.77.58s.81-.22.97-.62Z" fill="#334c9b"/>
        <path d="M103.92,95.17h-2.56c.05.64.53,1.06,1.2,1.06.37,0,.7-.13.94-.4l.23.27c-.27.33-.7.5-1.18.5-.95,0-1.6-.65-1.6-1.56s.63-1.55,1.49-1.55,1.48.63,1.48,1.55c0,.04,0,.08,0,.13ZM101.36,94.86h2.17c-.05-.6-.49-1.02-1.09-1.02s-1.03.42-1.08,1.02Z" fill="#334c9b"/>
        <path d="M104.34,96.22l.19-.33c.24.19.66.34,1.09.34.58,0,.82-.2.82-.5,0-.8-1.98-.17-1.98-1.38,0-.5.43-.87,1.21-.87.39,0,.83.11,1.08.29l-.18.33c-.27-.19-.59-.26-.9-.26-.55,0-.8.21-.8.51,0,.83,1.98.2,1.98,1.38,0,.53-.46.87-1.26.87-.51,0-.99-.16-1.24-.38Z" fill="#334c9b"/>
        <path d="M109.92,94.67v1.9h-.4v-.48c-.19.31-.55.51-1.05.51-.69,0-1.12-.36-1.12-.89,0-.47.3-.87,1.18-.87h.97v-.19c0-.52-.3-.81-.87-.81-.4,0-.77.14-1.02.36l-.19-.31c.31-.26.76-.41,1.24-.41.79,0,1.24.4,1.24,1.19ZM109.51,95.65v-.5h-.96c-.59,0-.79.23-.79.55,0,.35.29.58.77.58s.81-.22.97-.62Z" fill="#334c9b"/>
        <path d="M113.88,93.51v2.69c0,1.05-.52,1.53-1.53,1.53-.56,0-1.1-.17-1.42-.47l.21-.31c.29.26.73.42,1.2.42.77,0,1.13-.36,1.13-1.11v-.39c-.26.39-.69.59-1.19.59-.87,0-1.54-.61-1.54-1.49s.66-1.48,1.54-1.48c.51,0,.95.21,1.21.61v-.59h.39ZM113.48,94.96c0-.66-.49-1.12-1.16-1.12s-1.16.45-1.16,1.12.48,1.12,1.16,1.12,1.16-.46,1.16-1.12Z" fill="#334c9b"/>
        <path d="M117.87,93.51v2.69c0,1.05-.52,1.53-1.53,1.53-.56,0-1.11-.17-1.42-.47l.21-.31c.29.26.73.42,1.2.42.77,0,1.13-.36,1.13-1.11v-.39c-.26.39-.69.59-1.19.59-.87,0-1.54-.61-1.54-1.49s.66-1.48,1.54-1.48c.51,0,.95.21,1.21.61v-.59h.4ZM117.47,94.96c0-.66-.49-1.12-1.16-1.12s-1.16.45-1.16,1.12.48,1.12,1.16,1.12,1.16-.46,1.16-1.12Z" fill="#334c9b"/>
        <path d="M118.94,92.54c0-.16.13-.29.3-.29s.3.13.3.28c0,.17-.13.3-.3.3s-.3-.13-.3-.3ZM119.03,93.51h.41v3.06h-.41v-3.06Z" fill="#334c9b"/>
        <path d="M120.29,95.04c0-.91.66-1.55,1.56-1.55s1.55.65,1.55,1.55-.66,1.56-1.55,1.56-1.56-.65-1.56-1.56ZM122.98,95.04c0-.71-.48-1.19-1.13-1.19s-1.14.48-1.14,1.19.49,1.19,1.14,1.19,1.13-.48,1.13-1.19Z" fill="#334c9b"/>
      </g>
    </g>
  </g>
</svg>